<?xml version="1.0" encoding="UTF-8" standalone="no"?>
<!-- Created with Inkscape (http://www.inkscape.org/) -->

<svg
   xmlns:dc="http://purl.org/dc/elements/1.1/"
   xmlns:cc="http://creativecommons.org/ns#"
   xmlns:rdf="http://www.w3.org/1999/02/22-rdf-syntax-ns#"
   xmlns:svg="http://www.w3.org/2000/svg"
   xmlns="http://www.w3.org/2000/svg"
   xmlns:sodipodi="http://sodipodi.sourceforge.net/DTD/sodipodi-0.dtd"
   xmlns:inkscape="http://www.inkscape.org/namespaces/inkscape"
   version="1.1"
   id="svg2"
   width="219.00047"
   height="226.2037"
   viewBox="0 0 219.00047 226.20371"
   sodipodi:docname="G.svg"
   inkscape:version="0.92.4 (5da689c313, 2019-01-14)">
  <metadata
     id="metadata8">
    <rdf:RDF>
      <cc:Work
         rdf:about="">
        <dc:format>image/svg+xml</dc:format>
        <dc:type
           rdf:resource="http://purl.org/dc/dcmitype/StillImage" />
        <dc:title></dc:title>
      </cc:Work>
    </rdf:RDF>
  </metadata>
  <defs
     id="defs6" />
  <sodipodi:namedview
     pagecolor="#ffffff"
     bordercolor="#666666"
     borderopacity="1"
     objecttolerance="10"
     gridtolerance="10"
     guidetolerance="10"
     inkscape:pageopacity="0"
     inkscape:pageshadow="2"
     inkscape:window-width="1920"
     inkscape:window-height="1028"
     id="namedview4"
     showgrid="false"
     fit-margin-top="0"
     fit-margin-left="0"
     fit-margin-right="0"
     fit-margin-bottom="0"
     inkscape:zoom="1.3485714"
     inkscape:cx="-43.415127"
     inkscape:cy="121.00249"
     inkscape:window-x="-8"
     inkscape:window-y="-8"
     inkscape:window-maximized="1"
     inkscape:current-layer="svg2" />
  <path
     style="fill:#5bcc78;fill-opacity:1;stroke-width:1.29521441"
     d="M 87.208133,224.7595 C 70.781006,221.33711 58.733117,215.74606 43.218274,204.34515 24.307458,190.44875 11.400401,170.01156 3.3301535,141.18582 -1.0409878,125.57272 -1.1206435,98.633027 3.1601437,83.684727 15.917085,39.138111 46.136936,11.082714 91.477535,1.6929535 c 20.141955,-4.171276 48.014675,-0.430951 66.926305,8.9810495 9.18469,4.571066 20.50068,12.723385 20.50068,14.769201 0,0.751082 -7.79187,9.868962 -17.31527,20.261959 l -17.31528,18.896355 -4.70336,-3.104339 c -7.70793,-5.087411 -15.23285,-7.091905 -26.56108,-7.075354 -31.636649,0.04621 -54.301411,18.683664 -59.201324,48.681815 -1.265139,7.74543 -1.155564,10.90694 0.695854,20.07582 4.455149,22.06352 15.473914,37.40794 32.733163,45.58327 8.096826,3.83528 9.772613,4.15144 21.725707,4.09898 20.17042,-0.0886 34.22571,-5.5168 46.64001,-18.01271 7.6435,-7.69374 12.31462,-16.64334 12.29867,-23.56353 l -0.006,-2.77667 -10.03791,3.21713 c -24.42793,7.82911 -37.9551,11.68149 -38.35998,10.92449 -1.19515,-2.23471 -12.82553,-44.283327 -12.36431,-44.70213 0.54692,-0.496627 14.47936,-4.907807 69.18109,-21.903578 27.11244,-8.423809 31.19866,-9.389101 31.97338,-7.553102 1.37736,3.26419 5.94918,19.260384 8.37543,29.304523 3.36667,13.937327 3.05211,38.624807 -0.6594,51.750197 -12.77011,45.15861 -53.58111,74.88919 -105.09822,76.56312 -9.65778,0.3138 -17.990053,-0.16086 -23.697622,-1.34995 z"
     id="path817"
     inkscape:connector-curvature="0" />
</svg>
