<?xml version="1.0" encoding="UTF-8" standalone="no"?>
<!-- Created with Inkscape (http://www.inkscape.org/) -->

<svg
   xmlns:dc="http://purl.org/dc/elements/1.1/"
   xmlns:cc="http://creativecommons.org/ns#"
   xmlns:rdf="http://www.w3.org/1999/02/22-rdf-syntax-ns#"
   xmlns:svg="http://www.w3.org/2000/svg"
   xmlns="http://www.w3.org/2000/svg"
   xmlns:sodipodi="http://sodipodi.sourceforge.net/DTD/sodipodi-0.dtd"
   xmlns:inkscape="http://www.inkscape.org/namespaces/inkscape"
   version="1.1"
   id="svg2"
   width="159"
   height="158.91864"
   viewBox="0 0 159 158.91865"
   sodipodi:docname="love.svg"
   inkscape:version="0.92.4 (5da689c313, 2019-01-14)">
  <metadata
     id="metadata8">
    <rdf:RDF>
      <cc:Work
         rdf:about="">
        <dc:format>image/svg+xml</dc:format>
        <dc:type
           rdf:resource="http://purl.org/dc/dcmitype/StillImage" />
        <dc:title></dc:title>
      </cc:Work>
    </rdf:RDF>
  </metadata>
  <defs
     id="defs6" />
  <sodipodi:namedview
     pagecolor="#ffffff"
     bordercolor="#666666"
     borderopacity="1"
     objecttolerance="10"
     gridtolerance="10"
     guidetolerance="10"
     inkscape:pageopacity="0"
     inkscape:pageshadow="2"
     inkscape:window-width="1920"
     inkscape:window-height="1028"
     id="namedview4"
     showgrid="false"
     fit-margin-top="0"
     fit-margin-left="0"
     fit-margin-right="0"
     fit-margin-bottom="0"
     inkscape:zoom="0.99578059"
     inkscape:cx="-129.61594"
     inkscape:cy="50.12299"
     inkscape:window-x="-8"
     inkscape:window-y="-8"
     inkscape:window-maximized="1"
     inkscape:current-layer="svg2" />
  <path
     style="fill:#ef5368;fill-opacity:1;stroke-width:1.5705235"
     d="M 64.621971,157.98239 C 31.381693,150.62036 6.5475403,124.7743 0.97612525,91.74321 -4.0086898,62.189884 10.463867,29.800307 36.040387,13.269405 60.771613,-2.7151585 88.398159,-4.2989585 115.06835,8.7388165 178.24068,39.620736 171.8893,131.75971 104.98697,154.98867 c -10.153984,3.52554 -30.987371,5.07067 -40.364999,2.99372 z m 26.249433,-40.037 C 116.95826,111.14359 133.04651,95.424517 132.90526,76.876053 132.8561,70.429745 127.79689,60.121347 122.72362,56.13071 117.20734,51.791604 107.1337,49.061657 100.88657,50.212886 96.434229,51.033371 95.823453,50.609708 93.507622,45.094397 88.049628,32.09583 72.470019,26.033257 58.366105,31.419592 42.700985,37.402156 34.810314,56.025076 38.669247,77.906505 c 2.510278,14.234095 10.53072,34.980475 16.295905,42.152425 2.13932,2.66133 22.099292,1.48643 35.906252,-2.11354 z"
     id="path817"
     inkscape:connector-curvature="0" />
</svg>
