<?xml version="1.0" encoding="UTF-8" standalone="no"?>
<!-- Generator: Adobe Illustrator 22.0.1, SVG Export Plug-In . SVG Version: 6.00 Build 0)  -->

<svg
   xmlns:dc="http://purl.org/dc/elements/1.1/"
   xmlns:cc="http://creativecommons.org/ns#"
   xmlns:rdf="http://www.w3.org/1999/02/22-rdf-syntax-ns#"
   xmlns:svg="http://www.w3.org/2000/svg"
   xmlns="http://www.w3.org/2000/svg"
   xmlns:sodipodi="http://sodipodi.sourceforge.net/DTD/sodipodi-0.dtd"
   xmlns:inkscape="http://www.inkscape.org/namespaces/inkscape"
   version="1.1"
   id="Слой_1"
   x="0px"
   y="0px"
   viewBox="0 0 150.1 43.799999"
   xml:space="preserve"
   sodipodi:docname="logo.svg"
   width="150.10001"
   height="43.799999"
   inkscape:version="0.92.3 (2405546, 2018-03-11)"><metadata
   id="metadata31"><rdf:RDF><cc:Work
       rdf:about=""><dc:format>image/svg+xml</dc:format><dc:type
         rdf:resource="http://purl.org/dc/dcmitype/StillImage" /><dc:title></dc:title></cc:Work></rdf:RDF></metadata><defs
   id="defs29" /><sodipodi:namedview
   pagecolor="#ffffff"
   bordercolor="#666666"
   borderopacity="1"
   objecttolerance="10"
   gridtolerance="10"
   guidetolerance="10"
   inkscape:pageopacity="0"
   inkscape:pageshadow="2"
   inkscape:window-width="1920"
   inkscape:window-height="1028"
   id="namedview27"
   showgrid="false"
   fit-margin-top="0"
   fit-margin-left="0"
   fit-margin-right="0"
   fit-margin-bottom="0"
   inkscape:zoom="2.2080185"
   inkscape:cx="20.664606"
   inkscape:cy="13.8"
   inkscape:window-x="-8"
   inkscape:window-y="-8"
   inkscape:window-maximized="1"
   inkscape:current-layer="Слой_1" />
<style
   type="text/css"
   id="style2">
	.st0{fill:#FFFFFF;}
	.st1{fill-rule:evenodd;clip-rule:evenodd;fill:#FFFFFF;}
	.st2{fill-rule:evenodd;clip-rule:evenodd;fill:#5E44FE;}
	.st3{fill:#5E44FE;}
</style>
<g
   id="g12"
   transform="translate(-9,-5)">
	<path
   class="st0"
   d="m 22.1,13.2 c 5.1,0 9.4,1.7 12.9,5.1 3.5,3.4 5.2,7.6 5.2,12.5 0,4.9 -1.7,9.1 -5.2,12.5 -3.5,3.4 -7.8,5.1 -12.9,5.1 H 9 V 13.2 Z M 16.6,20 v 21.7 h 5.5 c 2.9,0 5.4,-1 7.5,-3.1 2.1,-2.1 3.1,-4.7 3.1,-7.7 0,-3 -1,-5.6 -3,-7.7 -2,-2.1 -4.5,-3.1 -7.6,-3.1 h -5.5 z"
   id="path4"
   inkscape:connector-curvature="0"
   style="fill:#ffffff" />
	<path
   class="st0"
   d="M 73.2,48.4 V 13.2 h 7.6 v 28.5 h 16.4 v 6.8 h -24 z"
   id="path6"
   inkscape:connector-curvature="0"
   style="fill:#ffffff" />
	<path
   class="st0"
   d="m 132.1,30.6 h -5.5 v 17.9 h -6.8 V 30.6 h -3.5 v -6.1 h 3.5 v -3.3 c 0,-5.7 2.6,-8.6 7.8,-8.6 0.7,0 1.5,0.1 2.2,0.2 0.8,0.1 1.3,0.3 1.7,0.4 l 0.5,0.2 v 5.8 c -0.7,-0.3 -1.5,-0.5 -2.5,-0.5 -0.9,0 -1.6,0.3 -2.2,0.8 -0.6,0.5 -0.9,1.2 -0.9,2 v 3 h 5.5 v 6.1 z"
   id="path8"
   inkscape:connector-curvature="0"
   style="fill:#ffffff" />
	<path
   class="st0"
   d="m 140.9,38.4 c 0.3,1.3 1,2.5 2.1,3.4 1.2,0.9 2.6,1.4 4.4,1.4 1.3,0 2.5,-0.3 3.6,-0.8 1.1,-0.5 1.9,-1 2.3,-1.5 l 0.7,-0.8 3.5,4.5 -0.5,0.5 c -0.2,0.2 -0.6,0.6 -1.3,1 -0.7,0.5 -1.4,0.9 -2.1,1.3 -0.8,0.4 -1.7,0.7 -2.9,1 -1.2,0.3 -2.4,0.4 -3.7,0.4 -3.6,0 -6.7,-1.3 -9.3,-3.8 -2.6,-2.5 -3.8,-5.5 -3.8,-9.1 0,-3.5 1.3,-6.5 3.8,-9.1 2.5,-2.5 5.6,-3.8 9.1,-3.8 3.5,0 6.5,1.2 8.8,3.5 2.3,2.3 3.5,5.3 3.5,8.8 l -0.2,2.8 z m 2.1,-8.1 c -1,0.8 -1.7,1.9 -2.1,3.3 h 11.3 c -0.3,-1.3 -0.9,-2.4 -1.9,-3.2 -1,-0.9 -2.2,-1.3 -3.7,-1.3 -1.4,0 -2.6,0.4 -3.6,1.2 z"
   id="path10"
   inkscape:connector-curvature="0"
   style="fill:#ffffff" />
</g>
<g
   id="Rectangle_1_1_"
   transform="translate(-9,-5)">
	<g
   id="g16">
		<rect
   x="103.5"
   y="24.200001"
   class="st1"
   width="6.9000001"
   height="24.200001"
   id="rect14"
   style="clip-rule:evenodd;fill:#ffffff;fill-rule:evenodd" />
	</g>
</g>
<g
   id="Ellipse_1_1_"
   transform="translate(-9,-5)">
	<g
   id="g21">
		<circle
   transform="matrix(0.3827,-0.9239,0.9239,0.3827,4.8265,71.2237)"
   class="st2"
   cx="55.700001"
   cy="32"
   id="ellipse19"
   r="5.3000002"
   style="clip-rule:evenodd;fill:#5e44fe;fill-rule:evenodd" />
	</g>
</g>
<path
   class="st3"
   d="M 107.8,0 C 100,0.3 93.7,8.5 94.6,15.2 101.7,15.8 108.7,7.7 107.8,0 Z"
   id="path24"
   inkscape:connector-curvature="0"
   style="fill:#5e44fe" />
</svg>