<?xml version="1.0" encoding="UTF-8" standalone="no"?>
<!-- Created with Inkscape (http://www.inkscape.org/) -->

<svg
   xmlns:dc="http://purl.org/dc/elements/1.1/"
   xmlns:cc="http://creativecommons.org/ns#"
   xmlns:rdf="http://www.w3.org/1999/02/22-rdf-syntax-ns#"
   xmlns:svg="http://www.w3.org/2000/svg"
   xmlns="http://www.w3.org/2000/svg"
   xmlns:sodipodi="http://sodipodi.sourceforge.net/DTD/sodipodi-0.dtd"
   xmlns:inkscape="http://www.inkscape.org/namespaces/inkscape"
   version="1.1"
   id="svg2"
   width="169.08397"
   height="174.64577"
   viewBox="0 0 169.08397 174.64577"
   sodipodi:docname="image.svg"
   inkscape:version="0.92.2 (5c3e80d, 2017-08-06)">
  <metadata
     id="metadata8">
    <rdf:RDF>
      <cc:Work
         rdf:about="">
        <dc:format>image/svg+xml</dc:format>
        <dc:type
           rdf:resource="http://purl.org/dc/dcmitype/StillImage" />
        <dc:title></dc:title>
      </cc:Work>
    </rdf:RDF>
  </metadata>
  <defs
     id="defs6" />
  <sodipodi:namedview
     pagecolor="#ffffff"
     bordercolor="#666666"
     borderopacity="1"
     objecttolerance="10"
     gridtolerance="10"
     guidetolerance="10"
     inkscape:pageopacity="0"
     inkscape:pageshadow="2"
     inkscape:window-width="1920"
     inkscape:window-height="1028"
     id="namedview4"
     showgrid="false"
     fit-margin-top="0"
     fit-margin-left="0"
     fit-margin-right="0"
     fit-margin-bottom="0"
     inkscape:zoom="1.3485714"
     inkscape:cx="90.059452"
     inkscape:cy="121.00249"
     inkscape:window-x="-8"
     inkscape:window-y="-8"
     inkscape:window-maximized="1"
     inkscape:current-layer="svg2" />
  <path
     style="fill:#5bcc78;fill-opacity:1"
     d="M 67.331041,173.53073 C 54.648101,170.8884 45.346251,166.5717 33.367661,157.76937 18.767131,147.04033 8.8019415,131.26133 2.5711215,109.00575 -0.80371854,96.951302 -0.86521854,76.151893 2.4398615,64.610715 12.289151,30.217477 35.621081,8.5566638 70.627331,1.3070838 86.178391,-1.913446 107.69816,0.97435775 122.29932,8.2411091 c 7.09125,3.5291969 15.82802,9.8233819 15.82802,11.4029009 0,0.57989 -6.01589,7.619559 -13.36865,15.64371 l -13.36866,14.589365 -3.63134,-2.396776 c -5.95108,-3.927853 -11.760869,-5.475468 -20.507089,-5.46269 -24.4258,0.03568 -41.92465,14.425152 -45.70774,37.585913 -0.97678,5.980034 -0.89218,8.420952 0.53725,15.5 3.4397,17.034648 11.94699,28.881658 25.27239,35.193608 6.25134,2.96112 7.54517,3.20522 16.77383,3.16471 15.57304,-0.0684 26.424749,-4.25937 36.009489,-13.90712 5.90134,-5.94013 9.50779,-12.84988 9.49547,-18.19277 l -0.005,-2.143792 -7.75,2.483862 c -18.86014,6.04464 -29.304109,9.01896 -29.616699,8.4345 -0.92275,-1.72536 -9.90225,-34.189957 -9.54615,-34.513304 0.42226,-0.383432 11.17912,-3.789185 53.412849,-16.91116 20.93278,-6.503795 24.08764,-7.249071 24.68578,-5.831546 1.06342,2.520193 4.5932,14.870422 6.46644,22.62523 2.59932,10.760634 2.35645,29.82117 -0.5091,39.95493 -9.85909,34.86574 -41.36816,57.81992 -81.143129,59.11231 -7.45651,0.24228 -13.88963,-0.12419 -18.29629,-1.04226 z"
     id="path817"
     inkscape:connector-curvature="0" />
</svg>
