<?xml version="1.0" encoding="UTF-8" standalone="no"?>
<svg
   xmlns:dc="http://purl.org/dc/elements/1.1/"
   xmlns:cc="http://creativecommons.org/ns#"
   xmlns:rdf="http://www.w3.org/1999/02/22-rdf-syntax-ns#"
   xmlns:svg="http://www.w3.org/2000/svg"
   xmlns="http://www.w3.org/2000/svg"
   xmlns:sodipodi="http://sodipodi.sourceforge.net/DTD/sodipodi-0.dtd"
   xmlns:inkscape="http://www.inkscape.org/namespaces/inkscape"
   width="360"
   height="64"
   viewBox="0 0 360 64"
   version="1.1"
   id="svg26"
   sodipodi:docname="BloggywoodLogo-02.svg"
   style="fill:none"
   inkscape:version="0.92.2 (5c3e80d, 2017-08-06)">
  <metadata
     id="metadata32">
    <rdf:RDF>
      <cc:Work
         rdf:about="">
        <dc:format>image/svg+xml</dc:format>
        <dc:type
           rdf:resource="http://purl.org/dc/dcmitype/StillImage" />
        <dc:title></dc:title>
      </cc:Work>
    </rdf:RDF>
  </metadata>
  <defs
     id="defs30" />
  <sodipodi:namedview
     pagecolor="#ffffff"
     bordercolor="#666666"
     borderopacity="1"
     objecttolerance="10"
     gridtolerance="10"
     guidetolerance="10"
     inkscape:pageopacity="0"
     inkscape:pageshadow="2"
     inkscape:window-width="1920"
     inkscape:window-height="1028"
     id="namedview28"
     showgrid="false"
     fit-margin-top="0"
     fit-margin-left="0"
     fit-margin-right="0"
     fit-margin-bottom="0"
     inkscape:zoom="1.0555556"
     inkscape:cx="180"
     inkscape:cy="32"
     inkscape:window-x="-8"
     inkscape:window-y="-8"
     inkscape:window-maximized="1"
     inkscape:current-layer="svg26" />
  <g
     id="g851">
    <path
       id="path2"
       d="M 360,0 H 0 v 64 h 360 z"
       inkscape:connector-curvature="0"
       style="fill:#2250ff" />
    <path
       id="path4"
       d="m 39.5823,38.3942 c 0,2.7337 -0.918,4.9393 -2.7946,6.5701 -1.8765,1.6308 -4.369,2.4697 -7.4714,2.4697 H 16.4359 V 16.5662 h 12.0554 c 6.1178,0 10.0917,3.3496 10.0917,8.7758 0,2.6046 -0.9586,4.6284 -2.841,6.1301 2.5737,1.5428 3.8403,3.8365 3.8403,6.9221 z M 24.2559,23.6173 v 4.8513 h 4.0204 c 1.4002,0 2.4925,-0.8799 2.4925,-2.4227 0,-1.4548 -1.0458,-2.4286 -2.4925,-2.4286 z m 4.8454,16.7656 c 1.5745,0 2.6667,-1.056 2.6667,-2.6046 0,-1.5898 -1.0922,-2.6046 -2.6667,-2.6046 h -4.8512 v 5.2033 h 4.8512 z"
       inkscape:connector-curvature="0"
       style="fill:#ffffff" />
    <path
       id="path6"
       d="m 50.2434,39.808 h 10.5274 v 7.6319 H 42.4233 V 16.5662 h 7.8201 z"
       inkscape:connector-curvature="0"
       style="fill:#ffffff" />
    <path
       id="path8"
       d="m 77.8052,48.0969 c -4.4968,0 -8.3023,-1.5428 -11.3989,-4.6284 -3.1024,-3.1326 -4.6304,-6.9221 -4.6304,-11.4684 0,-4.5463 1.528,-8.3358 4.6304,-11.4214 3.1025,-3.1326 6.9021,-4.6754 11.3989,-4.6754 4.4968,0 8.2557,1.5428 11.3582,4.6754 3.1024,3.0856 4.6769,6.881 4.6769,11.4214 0,4.5404 -1.5745,8.3358 -4.6769,11.4684 -3.1025,3.0856 -6.8556,4.6284 -11.3582,4.6284 z m 0,-7.714 c 2.3588,0 4.3225,-0.792 5.897,-2.3348 1.5744,-1.5897 2.3587,-3.6194 2.3587,-6.0421 0,-2.4286 -0.7843,-4.4525 -2.3587,-6.0011 -1.5745,-1.5898 -3.5382,-2.3817 -5.897,-2.3817 -2.3588,0 -4.3225,0.7919 -5.897,2.3817 -1.5745,1.5428 -2.3588,3.5725 -2.3588,6.0011 0,2.4227 0.7843,4.4524 2.3588,6.0421 1.5745,1.537 3.5382,2.3348 5.897,2.3348 z"
       inkscape:connector-curvature="0"
       style="fill:#ffffff" />
    <path
       id="path10"
       d="m 128.694,29.7534 v 3.1325 c 0,4.5404 -1.401,8.2009 -4.236,11.0284 -2.794,2.7806 -6.42,4.1885 -10.922,4.1885 -4.764,0 -8.692,-1.5428 -11.794,-4.6285 -3.0562,-3.0856 -4.5842,-6.881 -4.5842,-11.4214 0,-4.5404 1.528,-8.3358 4.5842,-11.4684 3.056,-3.1325 6.855,-4.6753 11.358,-4.6753 2.841,0 5.461,0.6629 7.82,1.9417 2.399,1.2788 4.235,2.9976 5.589,5.1622 l -6.641,3.8365 c -1.225,-1.9417 -3.712,-3.2205 -6.681,-3.2205 -2.399,0 -4.41,0.7919 -5.943,2.3816 -1.528,1.5898 -2.313,3.6195 -2.313,6.0891 0,2.3817 0.744,4.4114 2.272,6.0422 1.528,1.6308 3.713,2.4697 6.466,2.4697 3.539,0 5.897,-1.3669 7.03,-4.0594 h -7.425 v -6.7989 z"
       inkscape:connector-curvature="0"
       style="fill:#ffffff" />
    <path
       id="path12"
       d="m 162.245,25.2657 0.895,2.9976 c 1.295,4.3527 0.999,8.2654 -0.918,11.791 -1.888,3.4728 -4.956,5.8779 -9.267,7.1861 -4.561,1.3844 -8.767,1.05 -12.613,-1.009 -3.805,-2.0708 -6.356,-5.2561 -7.646,-9.6088 -1.295,-4.3527 -0.912,-8.4297 1.122,-12.3131 2.033,-3.8893 5.234,-6.4704 9.545,-7.7786 2.719,-0.8271 5.421,-0.9503 8.041,-0.4106 2.667,0.5279 4.915,1.6425 6.826,3.3202 l -5.263,5.6022 c -1.726,-1.5017 -4.474,-2.0062 -7.321,-1.1439 -2.3,0.6981 -3.997,2.0415 -5.008,4.0066 -1.011,1.9652 -1.185,4.1357 -0.482,6.4998 0.68,2.2819 1.97,4.0066 3.898,5.127 1.929,1.1204 4.259,1.2847 6.897,0.4869 3.387,-1.0266 5.258,-3.0211 5.577,-5.9307 l -7.111,2.1587 -1.935,-6.5055 z"
       inkscape:connector-curvature="0"
       style="fill:#ffffff" />
    <path
       id="path14"
       d="m 191.463,16.5662 -10.307,19.0064 v 11.8673 h -7.82 V 35.6606 L 163.024,16.5662 h 8.778 l 5.415,11.4214 5.461,-11.4214 z"
       inkscape:connector-curvature="0"
       style="fill:#ffffff" />
    <path
       id="path16"
       d="M 201.334,47.434 192.77,16.5662 h 8.43 l 4.718,19.4522 5.461,-19.4522 h 6.158 l 5.462,19.4522 4.764,-19.4522 h 8.389 l -8.523,30.8678 h -8.256 l -4.892,-17.4226 -4.892,17.4226 z"
       inkscape:connector-curvature="0"
       style="fill:#ffffff" />
    <path
       id="path18"
       d="m 252.35,48.0969 c -4.497,0 -8.297,-1.5428 -11.399,-4.6284 -3.102,-3.1326 -4.63,-6.9221 -4.63,-11.4684 0,-4.5463 1.528,-8.3358 4.63,-11.4214 3.102,-3.1326 6.902,-4.6754 11.399,-4.6754 4.497,0 8.256,1.5428 11.358,4.6754 3.103,3.0856 4.671,6.881 4.671,11.4214 0,4.5404 -1.574,8.3358 -4.671,11.4684 -3.102,3.0856 -6.856,4.6284 -11.358,4.6284 z m 0,-7.714 c 2.359,0 4.322,-0.792 5.897,-2.3348 1.574,-1.5897 2.359,-3.6194 2.359,-6.0421 0,-2.4286 -0.785,-4.4525 -2.359,-6.0011 -1.575,-1.5898 -3.538,-2.3817 -5.897,-2.3817 -2.359,0 -4.323,0.7919 -5.897,2.3817 -1.575,1.5428 -2.359,3.5725 -2.359,6.0011 0,2.4227 0.784,4.4524 2.359,6.0421 1.574,1.537 3.538,2.3348 5.897,2.3348 z"
       inkscape:connector-curvature="0"
       style="fill:#ffffff" />
    <path
       id="path20"
       d="m 286.86,48.0969 c -4.497,0 -8.297,-1.5428 -11.399,-4.6284 -3.102,-3.1326 -4.63,-6.9221 -4.63,-11.4684 0,-4.5463 1.528,-8.3358 4.63,-11.4214 3.102,-3.1326 6.902,-4.6754 11.399,-4.6754 4.497,0 8.256,1.5428 11.358,4.6754 3.102,3.0856 4.671,6.881 4.671,11.4214 0,4.5404 -1.574,8.3358 -4.671,11.4684 -3.102,3.0856 -6.861,4.6284 -11.358,4.6284 z m 0,-7.714 c 2.359,0 4.322,-0.792 5.897,-2.3348 1.574,-1.5897 2.359,-3.6194 2.359,-6.0421 0,-2.4286 -0.785,-4.4525 -2.359,-6.0011 -1.575,-1.5898 -3.538,-2.3817 -5.897,-2.3817 -2.359,0 -4.323,0.7919 -5.897,2.3817 -1.575,1.5428 -2.359,3.5725 -2.359,6.0011 0,2.4227 0.784,4.4524 2.359,6.0421 1.569,1.537 3.538,2.3348 5.897,2.3348 z"
       inkscape:connector-curvature="0"
       style="fill:#ffffff" />
    <path
       id="path22"
       d="m 318.965,16.5662 c 4.236,0 7.733,1.5017 10.568,4.4524 2.841,2.9565 4.282,6.617 4.282,10.9815 0,4.3644 -1.441,8.0718 -4.282,11.0284 -2.841,2.9565 -6.332,4.4114 -10.568,4.4114 h -12.45 V 16.5662 Z m 0,23.2418 c 2.138,0 3.846,-0.704 5.2,-2.1177 1.354,-1.4548 2.01,-3.3496 2.01,-5.6902 0,-2.3348 -0.656,-4.2354 -2.01,-5.6433 -1.354,-1.4548 -3.056,-2.1587 -5.2,-2.1587 h -4.409 v 15.6157 h 4.409 z"
       inkscape:connector-curvature="0"
       style="fill:#ffffff" />
    <path
       id="path24"
       d="m 335.471,43.4685 c 0,-2.5166 2.097,-4.5874 4.584,-4.5874 2.486,0 4.543,2.0708 4.543,4.5874 0,2.5165 -2.051,4.5873 -4.543,4.5873 -2.574,0 -4.584,-2.0766 -4.584,-4.5873 z"
       inkscape:connector-curvature="0"
       style="fill:#ffffff" />
  </g>
</svg>
