<?xml version="1.0" encoding="UTF-8" standalone="no"?>
<!-- Created with Inkscape (http://www.inkscape.org/) -->

<svg
   xmlns:dc="http://purl.org/dc/elements/1.1/"
   xmlns:cc="http://creativecommons.org/ns#"
   xmlns:rdf="http://www.w3.org/1999/02/22-rdf-syntax-ns#"
   xmlns:svg="http://www.w3.org/2000/svg"
   xmlns="http://www.w3.org/2000/svg"
   xmlns:sodipodi="http://sodipodi.sourceforge.net/DTD/sodipodi-0.dtd"
   xmlns:inkscape="http://www.inkscape.org/namespaces/inkscape"
   version="1.1"
   id="svg2"
   width="101.24013"
   height="101.18832"
   viewBox="0 0 101.24013 101.18832"
   sodipodi:docname="Love-500px.svg"
   inkscape:version="0.92.2 (5c3e80d, 2017-08-06)">
  <metadata
     id="metadata8">
    <rdf:RDF>
      <cc:Work
         rdf:about="">
        <dc:format>image/svg+xml</dc:format>
        <dc:type
           rdf:resource="http://purl.org/dc/dcmitype/StillImage" />
        <dc:title></dc:title>
      </cc:Work>
    </rdf:RDF>
  </metadata>
  <defs
     id="defs6" />
  <sodipodi:namedview
     pagecolor="#ffffff"
     bordercolor="#666666"
     borderopacity="1"
     objecttolerance="10"
     gridtolerance="10"
     guidetolerance="10"
     inkscape:pageopacity="0"
     inkscape:pageshadow="2"
     inkscape:window-width="1920"
     inkscape:window-height="1028"
     id="namedview4"
     showgrid="false"
     fit-margin-top="0"
     fit-margin-left="0"
     fit-margin-right="0"
     fit-margin-bottom="0"
     inkscape:zoom="0.99578059"
     inkscape:cx="51.14677"
     inkscape:cy="50.122983"
     inkscape:window-x="-8"
     inkscape:window-y="-8"
     inkscape:window-maximized="1"
     inkscape:current-layer="svg2" />
  <path
     style="fill:#ef5368;fill-opacity:1"
     d="M 41.14677,100.59218 C 19.981676,95.904556 4.1690176,79.447586 0.62152857,58.415686 -2.5524544,39.598186 6.6626616,18.97476 22.948008,8.4490334 38.69513,-1.7288236 56.28579,-2.7372776 73.26751,5.5642694 113.49125,25.227725 109.44713,83.895406 66.84839,98.685986 60.38304,100.93081 47.11779,101.91464 41.14677,100.59218 Z M 57.86058,75.099406 c 16.61029,-4.33091 26.85417,-14.33972 26.76423,-26.15009 -0.0313,-4.10456 -3.25265,-10.66823 -6.48296,-13.20919 -3.51238,-2.76284 -9.92657,-4.50108 -13.90431,-3.768058 -2.83494,0.522428 -3.22384,0.252669 -4.6984,-3.259097 -3.47527,-8.276582 -13.39528,-12.136806 -22.37567,-8.707163 -9.974457,3.80928 -14.998687,15.667058 -12.541587,29.599628 1.59837,9.06328 6.705229,22.27313 10.376097,26.83973 1.36217,1.69455 14.07129,0.94645 22.8626,-1.34576 z"
     id="path817"
     inkscape:connector-curvature="0" />
</svg>
