<?xml version="1.0" encoding="UTF-8" standalone="no"?>
<svg
   xmlns:dc="http://purl.org/dc/elements/1.1/"
   xmlns:cc="http://creativecommons.org/ns#"
   xmlns:rdf="http://www.w3.org/1999/02/22-rdf-syntax-ns#"
   xmlns:svg="http://www.w3.org/2000/svg"
   xmlns="http://www.w3.org/2000/svg"
   xmlns:sodipodi="http://sodipodi.sourceforge.net/DTD/sodipodi-0.dtd"
   xmlns:inkscape="http://www.inkscape.org/namespaces/inkscape"
   width="21.761717"
   height="17.08596"
   viewBox="0 0 21.761717 17.08596"
   version="1.1"
   id="svg4"
   sodipodi:docname="1.svg"
   style="fill:none"
   inkscape:version="0.92.2 (5c3e80d, 2017-08-06)">
  <metadata
     id="metadata10">
    <rdf:RDF>
      <cc:Work
         rdf:about="">
        <dc:format>image/svg+xml</dc:format>
        <dc:type
           rdf:resource="http://purl.org/dc/dcmitype/StillImage" />
        <dc:title></dc:title>
      </cc:Work>
    </rdf:RDF>
  </metadata>
  <defs
     id="defs8" />
  <sodipodi:namedview
     pagecolor="#ffffff"
     bordercolor="#666666"
     borderopacity="1"
     objecttolerance="10"
     gridtolerance="10"
     guidetolerance="10"
     inkscape:pageopacity="0"
     inkscape:pageshadow="2"
     inkscape:window-width="1920"
     inkscape:window-height="1028"
     id="namedview6"
     showgrid="false"
     fit-margin-top="0"
     fit-margin-left="0"
     fit-margin-right="0"
     fit-margin-bottom="0"
     inkscape:zoom="9.2709556"
     inkscape:cx="7.5744381"
     inkscape:cy="6.7081335"
     inkscape:window-x="-8"
     inkscape:window-y="-8"
     inkscape:window-maximized="1"
     inkscape:current-layer="svg4" />
  <path
     d="m 21.761717,8.542971 c 0,0.12891 -0.0469,0.23437 -0.1406,0.32812 l -7.9219,7.96877 c -0.1758,0.1992 -0.3047,0.2461 -0.4336,0.2461 -0.2578,0 -0.457,-0.1992 -0.457,-0.4453 0,-0.1289 0.0351,-0.2461 0.1289,-0.3282 l 4.6758,-4.6875 2.8007,-2.70699 -2.5664,0.07031 H 0.445317 C 0.199217,8.988281 0,8.800781 0,8.542971 0,8.285151 0.199217,8.097651 0.445317,8.097651 l 17.4023,10e-6 2.5664,0.05859 -2.8007,-2.69531 -4.6758,-4.687503 c -0.082,-0.082031 -0.1289,-0.210938 -0.1289,-0.339844 0,-0.234375 0.1992,-0.433594 0.457,-0.433594 0.1289,0 0.2344,0.046875 0.3281,0.140625 l 8.0274,8.074216 c 0.0937,0.09375 0.1406,0.19922 0.1406,0.32813 z"
     id="path2"
     inkscape:connector-curvature="0"
     style="fill:#000000" />
</svg>
