<?xml version="1.0" encoding="UTF-8" standalone="no"?>
<svg
   xmlns:dc="http://purl.org/dc/elements/1.1/"
   xmlns:cc="http://creativecommons.org/ns#"
   xmlns:rdf="http://www.w3.org/1999/02/22-rdf-syntax-ns#"
   xmlns:svg="http://www.w3.org/2000/svg"
   xmlns="http://www.w3.org/2000/svg"
   xmlns:sodipodi="http://sodipodi.sourceforge.net/DTD/sodipodi-0.dtd"
   xmlns:inkscape="http://www.inkscape.org/namespaces/inkscape"
   width="21.7617"
   height="17.085964"
   viewBox="0 0 21.7617 17.085964"
   version="1.1"
   id="svg4"
   sodipodi:docname="2.svg"
   style="fill:none"
   inkscape:version="0.92.2 (5c3e80d, 2017-08-06)">
  <metadata
     id="metadata10">
    <rdf:RDF>
      <cc:Work
         rdf:about="">
        <dc:format>image/svg+xml</dc:format>
        <dc:type
           rdf:resource="http://purl.org/dc/dcmitype/StillImage" />
        <dc:title></dc:title>
      </cc:Work>
    </rdf:RDF>
  </metadata>
  <defs
     id="defs8" />
  <sodipodi:namedview
     pagecolor="#ffffff"
     bordercolor="#666666"
     borderopacity="1"
     objecttolerance="10"
     gridtolerance="10"
     guidetolerance="10"
     inkscape:pageopacity="0"
     inkscape:pageshadow="2"
     inkscape:window-width="1920"
     inkscape:window-height="1028"
     id="namedview6"
     showgrid="false"
     fit-margin-top="0"
     fit-margin-left="0"
     fit-margin-right="0"
     fit-margin-bottom="0"
     inkscape:zoom="13.111111"
     inkscape:cx="11.249999"
     inkscape:cy="8.2969"
     inkscape:window-x="-8"
     inkscape:window-y="-8"
     inkscape:window-maximized="1"
     inkscape:current-layer="svg4" />
  <path
     d="m 0,8.542964 c 0,0.12891 0.046875,0.23438 0.140625,0.32813 l 7.921874,7.96877 c 0.17578,0.1992 0.30469,0.2461 0.43359,0.2461 0.25782,0 0.45704,-0.1992 0.45704,-0.4453 0,-0.1289 -0.03516,-0.2461 -0.12891,-0.3282 l -4.67578,-4.6875 -2.80078,-2.707 2.5664,0.07032 h 17.40234 c 0.2461,0 0.4453,-0.1875 0.4453,-0.44531 0,-0.25782 -0.1992,-0.44532 -0.4453,-0.44532 H 3.914059 l -2.5664,0.05859 2.80078,-2.69531 4.67578,-4.687497 C 8.906249,0.691406 8.953129,0.5625 8.953129,0.433593 8.953129,0.199218 8.753909,0 8.496099,0 8.367189,0 8.261719,0.046875 8.167969,0.140625 L 0.140625,8.214844 C 0.046875,8.308594 0,8.414064 0,8.542964 Z"
     id="path2"
     inkscape:connector-curvature="0"
     style="fill:#000000" />
</svg>
