<?xml version="1.0" encoding="UTF-8" standalone="no"?>
<svg
   xmlns:dc="http://purl.org/dc/elements/1.1/"
   xmlns:cc="http://creativecommons.org/ns#"
   xmlns:rdf="http://www.w3.org/1999/02/22-rdf-syntax-ns#"
   xmlns:svg="http://www.w3.org/2000/svg"
   xmlns="http://www.w3.org/2000/svg"
   xmlns:sodipodi="http://sodipodi.sourceforge.net/DTD/sodipodi-0.dtd"
   xmlns:inkscape="http://www.inkscape.org/namespaces/inkscape"
   width="22.195356"
   height="18.187458"
   viewBox="0 0 22.195356 18.187458"
   version="1.1"
   id="svg4"
   sodipodi:docname="arrow-bold-l.svg"
   style="fill:none"
   inkscape:version="0.92.2 (5c3e80d, 2017-08-06)">
  <metadata
     id="metadata10">
    <rdf:RDF>
      <cc:Work
         rdf:about="">
        <dc:format>image/svg+xml</dc:format>
        <dc:type
           rdf:resource="http://purl.org/dc/dcmitype/StillImage" />
        <dc:title></dc:title>
      </cc:Work>
    </rdf:RDF>
  </metadata>
  <defs
     id="defs8" />
  <sodipodi:namedview
     pagecolor="#ffffff"
     bordercolor="#666666"
     borderopacity="1"
     objecttolerance="10"
     gridtolerance="10"
     guidetolerance="10"
     inkscape:pageopacity="0"
     inkscape:pageshadow="2"
     inkscape:window-width="1920"
     inkscape:window-height="1028"
     id="namedview6"
     showgrid="false"
     fit-margin-top="0"
     fit-margin-left="0"
     fit-margin-right="0"
     fit-margin-bottom="0"
     inkscape:zoom="12.421053"
     inkscape:cx="11.097656"
     inkscape:cy="9.2773"
     inkscape:window-x="-8"
     inkscape:window-y="-8"
     inkscape:window-maximized="1"
     inkscape:current-layer="svg4" />
  <path
     d="m 0,9.093748 c 0,0.35161 0.152346,0.70311 0.421876,0.97261 l 7.71094,7.6993 c 0.30468,0.2929 0.62109,0.4218 0.94922,0.4218 0.73832,0 1.27732,-0.539 1.27732,-1.2539 0,-0.3632 -0.1406,-0.6914 -0.375,-0.9257 l -2.64842,-2.6719 -3.38672,-3.1055 2.71875,0.1641 h 14.20309 c 0.7852,0 1.3243,-0.5274 1.3243,-1.30081 0,-0.77343 -0.5391,-1.30078 -1.3243,-1.30078 H 6.667966 l -2.73047,0.15234 3.39844,-3.09375 2.64842,-2.67187 c 0.2344,-0.23438 0.375,-0.5625 0.375,-0.92578 C 10.359356,0.539058 9.820356,0 9.082036,0 8.753906,0 8.437506,0.128906 8.156256,0.410156 L 0.421876,8.121088 C 0.152346,8.378908 0,8.730468 0,9.093748 Z"
     id="path2"
     inkscape:connector-curvature="0"
     style="fill:#000000" />
</svg>
