<?xml version="1.0" encoding="UTF-8" standalone="no"?>
<svg
   xmlns:dc="http://purl.org/dc/elements/1.1/"
   xmlns:cc="http://creativecommons.org/ns#"
   xmlns:rdf="http://www.w3.org/1999/02/22-rdf-syntax-ns#"
   xmlns:svg="http://www.w3.org/2000/svg"
   xmlns="http://www.w3.org/2000/svg"
   xmlns:sodipodi="http://sodipodi.sourceforge.net/DTD/sodipodi-0.dtd"
   xmlns:inkscape="http://www.inkscape.org/namespaces/inkscape"
   width="21.3762"
   height="21.376057"
   viewBox="0 0 21.3762 21.376057"
   version="1.1"
   id="svg4"
   sodipodi:docname=" Insta.svg"
   style="fill:none"
   inkscape:version="0.92.2 (5c3e80d, 2017-08-06)">
  <metadata
     id="metadata10">
    <rdf:RDF>
      <cc:Work
         rdf:about="">
        <dc:format>image/svg+xml</dc:format>
        <dc:type
           rdf:resource="http://purl.org/dc/dcmitype/StillImage" />
        <dc:title></dc:title>
      </cc:Work>
    </rdf:RDF>
  </metadata>
  <defs
     id="defs8" />
  <sodipodi:namedview
     pagecolor="#ffffff"
     bordercolor="#666666"
     borderopacity="1"
     objecttolerance="10"
     gridtolerance="10"
     guidetolerance="10"
     inkscape:pageopacity="0"
     inkscape:pageshadow="2"
     inkscape:window-width="1920"
     inkscape:window-height="1028"
     id="namedview6"
     showgrid="false"
     fit-margin-top="0"
     fit-margin-left="0"
     fit-margin-right="0"
     fit-margin-bottom="0"
     inkscape:zoom="10.727273"
     inkscape:cx="11"
     inkscape:cy="10.6534"
     inkscape:window-x="-8"
     inkscape:window-y="-8"
     inkscape:window-maximized="1"
     inkscape:current-layer="svg4" />
  <path
     d="M 10.6881,0 C 7.78542,0 7.42132,0.012303 6.2815,0.064318 5.14384,0.116248 4.36693,0.296898 3.68709,0.561129 2.97393,0.829506 2.3279,1.250206 1.79404,1.793906 1.25021,2.327736 0.829389,2.973776 0.560917,3.686966 0.296899,4.366846 0.116248,5.143756 0.0645303,6.281416 0.0123036,7.421236 0,7.785336 0,10.688056 c 0,2.9027 0.0123036,3.2668 0.0645303,4.4066 0.0519297,1.1377 0.2325807,1.9146 0.4968107,2.5944 0.268374,0.7132 0.689079,1.3592 1.232779,1.8931 0.53386,0.5437 1.1799,0.9644 1.89306,1.2328 0.67988,0.2642 1.45679,0.4449 2.5944,0.4968 1.14,0.052 1.50397,0.0643 4.40662,0.0643 2.9027,0 3.2668,-0.0123 4.4067,-0.0643 1.1376,-0.0519 1.9145,-0.2326 2.5944,-0.4968 0.71,-0.2746 1.3548,-0.6945 1.893,-1.2328 0.5383,-0.5383 0.9582,-1.1831 1.2328,-1.8931 0.2642,-0.6798 0.4449,-1.4567 0.4968,-2.5944 0.052,-1.14 0.0643,-1.5039 0.0643,-4.4066 0,-2.90268 -0.0123,-3.26682 -0.0643,-4.40664 C 21.26,5.143756 21.0793,4.366846 20.8151,3.687006 20.5467,2.973846 20.126,2.327806 19.5823,1.793946 19.0485,1.250136 18.4024,0.829346 17.6891,0.560917 17.0093,0.296898 16.2324,0.116248 15.0947,0.06453 13.9549,0.012303 13.5909,0 10.6881,0 Z m 7.5577,3.873606 c 0,0.54531 -0.442,0.98738 -0.9874,0.98738 -0.5453,0 -0.9873,-0.44207 -0.9873,-0.98738 0,-0.54531 0.442,-0.98738 0.9873,-0.98738 0.5454,0 0.9874,0.44207 0.9874,0.98738 z m -10.676,2.0619 c 0.97423,-0.65097 2.11962,-0.99842 3.2913,-0.99842 1.5712,0 3.0781,0.62416 4.1891,1.73517 1.111,1.11101 1.7352,2.61787 1.7352,4.1891 0,1.1717 -0.3475,2.3171 -0.9984,3.2913 -0.651,0.9742 -1.5763,1.7336 -2.6588,2.182 -1.0825,0.4484 -2.2736,0.5657 -3.42283,0.3371 -1.14919,-0.2286 -2.20479,-0.7928 -3.03331,-1.6214 -0.82852,-0.8285 -1.39275,-1.8841 -1.62134,-3.0333 -0.22859,-1.1492 -0.11127,-2.34032 0.33712,-3.42284 0.44839,-1.08251 1.20772,-2.00775 2.18196,-2.65871 z m 1.15488,8.12325 c 0.63239,0.4225 1.37592,0.6481 2.13642,0.6481 1.0199,0 1.9981,-0.4052 2.7192,-1.1263 0.7212,-0.7212 1.1264,-1.6993 1.1264,-2.7192 0,-0.7606 -0.2255,-1.50409 -0.6481,-2.13648 -0.4225,-0.63239 -1.0231,-1.12528 -1.7258,-1.41634 -0.7027,-0.29106 -1.4759,-0.36722 -2.2218,-0.21884 -0.74599,0.14837 -1.4312,0.51462 -1.96901,1.05242 -0.53781,0.5378 -0.90406,1.223 -1.05245,1.96894 -0.14838,0.746 -0.07223,1.5192 0.21882,2.2219 0.29105,0.7026 0.78393,1.3032 1.41632,1.7258 z"
     id="path2"
     inkscape:connector-curvature="0"
     style="clip-rule:evenodd;fill:#000000;fill-rule:evenodd" />
</svg>
