<svg width="25" height="23" viewBox="0 0 25 23" fill="none" xmlns="http://www.w3.org/2000/svg">
<path d="M0.441238 11.0282L6.20098 13.3L8.43088 20.876C8.57587 21.3621 9.13585 21.5417 9.50583 21.2194L12.7157 18.4563C13.0507 18.1658 13.5306 18.1499 13.8856 18.4194L19.6754 22.8625C20.0754 23.1689 20.6403 22.9365 20.7403 22.4293L24.9851 0.863409C25.0951 0.308677 24.5751 -0.156242 24.0752 0.0498015L0.436238 9.68629C-0.148735 9.92404 -0.143736 10.801 0.441238 11.0282ZM8.07089 12.0954L19.3304 4.76767C19.5304 4.63559 19.7404 4.92616 19.5654 5.09522L10.2758 14.2192C9.95081 14.5415 9.74082 14.9695 9.68082 15.4344L9.36584 17.9122C9.32584 18.245 8.88586 18.2767 8.79586 17.9544L7.58092 13.4373C7.44092 12.9249 7.64091 12.3754 8.07089 12.0954Z" fill="black"/>
</svg>
